<svg xmlns="http://www.w3.org/2000/svg" xmlns:xlink="http://www.w3.org/1999/xlink" width="305" height="100" xmlns:v="https://vecta.io/nano"><style><![CDATA[.B{fill-rule:evenodd}.C{fill:#ee2333}.D{fill:#231f20}.E{fill:#1d6135}]]></style><defs><clipPath ><path d="M0 841.89h1190.55V0H0z"/></clipPath><path id="B" d="M92.511 777.852h-2.656l.042 3.311.025 5.026-.008 3.807-.059 4.867h2.656l-.059-4.53-.025-3.757.042-6.287.042-2.437m.151 20.273h-2.959v2.891h2.959z"/><path id="C" d="M53.744 832.414c.077-.055.077-.055.436.216l.314-.178c-.072-.328.17-.442.409-.572-.163-.377.134-.494.376-.64-.264-.393.069-.657.494-.752l-1.139-.794c-.035-.024-.123-.015-.16.014l-1.453 1.122.076.818.07 1.13c.051.492.601.767 1.043.536a.25.25 0 0 0 .067-.39c-.158-.182-.349-.336-.534-.51"/><path id="D" d="M55.936 831.964l-.263-.34c-.125-.17-.263-.145-.408-.033s-.192.238-.058.401l.528.679c.12.16.241.143.384.032s.213-.233.08-.399l-.264-.34"/><path id="E" d="M55.547 832.596l-.276-.357c-.117-.155-.247-.113-.371-.018-.131.099-.212.219-.086.381l.568.73c.121.154.251.098.371.001s.202-.209.085-.364l-.29-.375"/><path id="F" d="M55.792 831.614l.292.377c.094.125.201.117.313.032s.266-.171.147-.344l-.608-.818c-.119-.142-.265-.055-.379.045-.103.091-.169.196-.059.332l.293.376"/><path id="G" d="M54.364 833.433l.379.328c.173.119.36.104.529-.018.117-.084.164-.183.05-.318l-.447-.572c-.157-.197-.24-.198-.446.001.13.184.24.379-.066.579"/><path id="H" d="M57.283 823.388c.068-.065.068-.065.463.149l.284-.223c-.12-.313.102-.462.32-.626-.217-.348.059-.509.277-.689-.319-.349-.029-.66.377-.817l-1.244-.617c-.039-.019-.123.004-.156.037l-1.271 1.325.196.797.236 1.107c.124.479.708.669 1.111.376a.25.25 0 0 0 .009-.395c-.184-.157-.395-.281-.603-.425"/><path id="I" d="M59.384 822.618l-.31-.298c-.149-.15-.282-.104-.408.027s-.155.264.002.405l.622.593c.142.14.26.106.385-.025s.176-.262.02-.406l-.311-.297"/><path id="J" d="M59.093 823.301l-.326-.312c-.139-.136-.261-.075-.37.037-.115.118-.177.248-.028.39l.67.638c.143.135.263.06.367-.053s.169-.237.03-.372l-.343-.328"/><path id="K" d="M59.19 822.293l.345.329c.111.11.216.086.315-.014s.238-.209.095-.362l-.723-.719c-.139-.123-.271-.015-.368.1-.088.105-.138.219-.009.337l.345.329"/><path id="L" d="M58.047 824.303l.424.268c.189.092.371.05.521-.096.103-.101.135-.206.003-.322l-.527-.499c-.184-.172-.267-.16-.441.067.156.163.294.34.02.582"/><path id="M" d="M61.121 814.845c.037-.063.037-.063.378.013l.165-.227c-.157-.209-.022-.368.107-.537-.237-.215-.064-.394.061-.575-.313-.194-.162-.488.109-.692l-1.063-.197c-.033-.006-.092.029-.109.061l-.67 1.263.316.555.412.779c.194.332.672.351.912.045.072-.093.048-.24-.078-.298-.171-.079-.355-.126-.542-.19"/><path id="N" d="M62.531 813.821l-.296-.157c-.143-.081-.233-.018-.3.108s-.06.231.088.303l.592.311c.136.075.217.024.283-.101s.076-.233-.071-.308l-.296-.156"/><path id="O" d="M62.458 814.395l-.311-.164c-.133-.072-.212 0-.269.106-.061.113-.08.223.062.298l.638.335c.135.07.21-.011.264-.118s.076-.213-.057-.285l-.326-.172"/><path id="P" d="M62.316 813.619l.328.173c.107.058.18.019.233-.078s.134-.207-.006-.291l-.694-.385c-.13-.063-.206.046-.254.153-.044.097-.057.194.065.254l.328.173"/><path id="Q" d="M61.888 815.368l.374.111c.161.029.289-.042.37-.183.056-.097.058-.183-.067-.242l-.501-.262c-.174-.09-.234-.063-.316.144.151.089.293.192.139.432"/><path id="R" d="M55.614 794.588l-.322.09c-.159.04-.182.148-.143.285s.115.209.273.159l.644-.182c.15-.04.174-.132.136-.268s-.106-.221-.264-.174l-.322.091"/><path id="S" d="M56.213 796.152l.348-.178c.137-.09.181-.229.143-.387-.027-.109-.084-.172-.215-.13l-.544.155c-.188.055-.213.115-.13.322.171-.04.344-.062.398.217"/><path id="T" d="M53.08 803.313c.009-.073.009-.073.354-.135l.064-.274c-.225-.132-.163-.331-.11-.536-.302-.106-.212-.338-.167-.553-.364-.057-.339-.386-.169-.68l-1.056.231c-.033.008-.073.062-.077.099l-.126 1.424.507.389.683.558c.308.231.756.062.858-.313.031-.113-.049-.24-.187-.244-.188-.006-.377.022-.573.036"/><path id="U" d="M53.981 801.822l-.333-.03c-.163-.019-.222.074-.235.216s.034.236.199.245l.667.057c.155.016.209-.062.222-.203s-.02-.244-.185-.256l-.334-.029"/><path id="V" d="M54.137 802.379l-.35-.031c-.15-.015-.195.082-.207.203-.012.128.013.237.173.251l.718.061c.152.012.189-.092.197-.211s-.013-.226-.163-.241l-.368-.032"/><path id="W" d="M53.705 801.719l.37.032c.121.013.174-.053.184-.162s.042-.243-.119-.266l-.789-.085c-.145-.007-.172.123-.175.24-.003.107.023.201.159.209l.37.032"/><path id="X" d="M53.99 803.497l.388-.044c.16-.036.25-.15.27-.312.014-.111-.018-.191-.156-.197l-.563-.047c-.196-.015-.24.033-.235.256.174.023.344.063.296.344"/><path id="Y" d="M47.91 791.324c-.016-.071-.016-.071.286-.247l-.033-.279c-.257-.047-.266-.255-.287-.466-.32.003-.314-.245-.346-.463-.362.071-.451-.247-.391-.582l-.914.577c-.028.018-.047.084-.038.119l.367 1.381.609.192.832.291c.368.112.731-.2.7-.587-.01-.117-.128-.209-.26-.166-.179.059-.347.149-.527.229"/><path id="Z" d="M48.249 789.615l-.324.086c-.16.038-.183.145-.147.283s.113.21.27.163l.646-.174c.151-.038.176-.13.139-.266s-.103-.223-.262-.178l-.323.087"/><path id="a" d="M48.828 791.186l.35-.173c.138-.088.183-.227.147-.385-.025-.109-.082-.173-.213-.132l-.545.148c-.189.053-.214.113-.134.321.171-.037.345-.058.395.222"/><path id="b" d="M48.489 812.203c.049-.054.049-.054.367.093l.21-.187c-.109-.237.057-.364.218-.502-.186-.26.021-.398.181-.549-.265-.255-.056-.511.253-.653l-.997-.418c-.031-.012-.096.009-.119.037l-.921 1.093.192.61.238.849c.12.366.583.485.882.237.09-.075.098-.224-.013-.308-.15-.113-.321-.199-.49-.3"/><path id="c" d="M50.083 811.501l-.256-.216c-.123-.109-.224-.067-.316.042s-.107.213.022.315l.513.43c.118.102.207.07.298-.039s.124-.212-.004-.316l-.257-.215"/><path id="d" d="M49.89 812.046l-.269-.226c-.115-.099-.207-.045-.286.047-.083.097-.125.202-.002.304l.552.463c.117.097.207.033.282-.06s.12-.192.005-.291l-.283-.237"/><path id="e" d="M49.916 811.258l.284.239c.092.08.172.057.244-.027s.174-.174.056-.286l-.597-.523c-.114-.089-.211.001-.281.096-.064.086-.097.177.01.262l.284.238"/><path id="f" d="M49.128 812.876l.343.187c.151.062.291.02.4-.1.075-.083.095-.166-.014-.251l-.434-.362c-.152-.124-.215-.111-.339.074.129.119.245.249.045.452"/><path id="g" d="M44.189 831.283c.09-.027.09-.027.343.344l.355-.068c.037-.333.303-.363.572-.409-.033-.409.286-.425.562-.485-.123-.457.276-.6.71-.553l-.823-1.119c-.026-.034-.111-.053-.156-.038l-1.737.595-.192.798-.298 1.092c-.11.482.322.919.815.843a.25.25 0 0 0 .189-.347c-.091-.224-.222-.431-.341-.654"/><path id="h" d="M46.409 831.563l-.139-.407c-.063-.201-.203-.222-.376-.163s-.259.164-.184.361l.281.812c.062.19.182.213.354.154s.276-.152.204-.351l-.141-.407"/><path id="i" d="M45.837 832.036l-.147-.427c-.061-.184-.198-.186-.346-.137-.156.052-.271.139-.204.334l.303.874c.065.185.206.174.351.121s.259-.133.197-.317l-.154-.448"/><path id="j" d="M46.385 831.185l.155.451c.049.148.152.176.287.132s.307-.076.25-.278l-.313-.97c-.067-.173-.233-.138-.373-.08-.127.053-.224.131-.162.295l.156.45"/><path id="k" d="M44.448 832.448l.254.433c.126.168.307.214.507.154.138-.042.215-.121.15-.285l-.239-.686c-.085-.237-.163-.265-.423-.142.063.216.105.437-.249.527"/></defs><g transform="matrix(1.333333 0 0 -1.333333 0 1122.52)"><path d="M205.112 817.669c-.441.945-1.885 1.371-3.022.944-1.213-.456-1.794-1.586-1.678-2.624l4.7 1.681m3.804-3.566l-.022.038-6.94-2.502c.395-.412.83-.659 1.337-.752 1.228-.225 2.347.068 3.272.886.826.73 1.572 1.549 2.354 2.33m-78.089 6.651c-.008-.038-.021-.076-.021-.114-.009-.479-.131-.929-.342-1.355-.315-.637-.753-1.145-1.463-1.361-.514-.156-1.018-.071-1.518.06l-1.796.491c-1.188.266-2.266-.239-2.866-1.295-.351-.618-.515-1.284-.547-1.987-.057-1.248.197-2.404 1.026-3.38.644-.758 1.464-1.088 2.44-.841.484.122.937.372 1.408.551.444.168.884.398 1.344.46 1.111.151 1.911-.394 2.502-1.298l.145-.206.234 1.044 1.641 7.296c.038.169-.006.204-.161.238-.508.109-.976.31-1.367.665-.312.283-.511.635-.661 1.032m80.757-4.688c-.233-.678-.69-1.081-1.307-1.407l.456-.055c1.665-.309 2.613-1.933 2.089-3.571-.264-.824-.748-1.513-1.324-2.14-1.184-1.286-2.54-2.339-4.17-3.005-2.258-.923-4.545-1.099-6.832-.135-1.865.786-3.26 2.124-4.243 3.879-1.404 2.507-1.816 5.168-1.153 7.979.007.027.01.056.014.084 0 .005-.007.012-.023.04-.868-.448-1.77-.408-2.706-.115l-.258-1.132-1.29-5.797-.623-2.746c-.245-.953-.776-1.716-1.689-2.141-1.694-.786-3.648.219-4.033 2.055a3.99 3.99 0 0 0-.015 1.551.35.35 0 0 1-.013.2l-.225-.514c-.788-1.601-2.064-2.675-3.688-3.349-2.032-.844-4.117-.898-6.223-.319-.615.168-1.201.415-1.727.788-.987.701-1.363 1.73-1.065 2.912.165.653.452 1.241.996 1.66.625.482 1.358.616 2.116.488.689-.116 1.363-.318 2.043-.483.626-.152 1.246-.145 1.854.086.067.026.137.049.199.085.18.105.351.228.321.469-.027.219-.23.253-.39.283l-2.217.395c-1.332.209-2.65.458-3.847 1.123-1.283.713-2.111 1.773-2.449 3.207l-.045.167c-.012.034-.033.064-.068.134l.13-2.457.288-5.567c.044-.912-.199-1.733-.781-2.462-.985-1.234-3.636-1.549-4.728.594-.3.59-.381 1.222-.413 1.868l-.493 9.965a5.94 5.94 0 0 1-.094.888l-.117-.328-1.001-2.163-4.511-9.471c-.284-.598-.619-1.153-1.113-1.612-1.169-1.088-3.68-1.022-4.68.87-.37.7-.541 1.461-.753 2.21l-2.936 10.405c-.066.234-.132.467-.239.692l.047-1.053.501-9.421c.034-.676.106-1.353-.036-2.031-.398-1.895-2.443-2.956-4.141-2.106-1.015.507-1.531 1.399-1.637 2.5l-.189 3.247-.333 6.65-.117 1.673-.04-.119c-.216-.925-.66-1.67-1.62-1.977-.652-.208-1.312-.175-1.967.007l-.269.069-.321-1.434-1.214-5.458-.629-2.768c-.254-.983-.804-1.765-1.762-2.18-1.525-.662-3.265.1-3.837 1.661l-.112.311-.263-.321c-.513-.589-1.164-.99-1.848-1.343-2.32-1.199-4.703-1.327-7.116-.331-1.557.643-2.732 1.771-3.66 3.156-1.336 1.993-1.814 4.217-1.663 6.583a9.69 9.69 0 0 0 3.365 6.884c1.722 1.519 3.773 2.063 6.037 1.866 1.002-.087 1.962-.345 2.877-.762.903-.412 1.687-.954 2.04-1.957l.165 1.002c.352 1.453 1.729 2.296 3.183 1.95.172-.041.211.022.244.167l.539 2.187c.309.941.916 1.654 1.887 1.981 1.297.436 3.313-.189 3.717-2.237.149-.757.039-1.496-.144-2.231l-.26-1.118c-.042-.167.021-.205.172-.242.356-.088.72-.172 1.055-.317.738-.32 1.107-.756 1.396-1.576.271 1.764 1.138 2.926 3.019 2.944 1.488.014 2.31-.911 2.794-2.292l.05.222c.159 1.478 1.303 2.348 2.593 2.49a3.08 3.08 0 0 0 1.369-.148c.979-.344 1.49-1.095 1.709-2.053l1.423-6.455.205-.941.093.182 2.559 6.676c.252.654.619 1.224 1.256 1.579 1.125.626 3.385.345 4.166-1.55l.072-.168c.129.325.221.654.383.946.633 1.139 1.629 1.639 2.909 1.501 1.194-.129 1.941-.87 2.342-1.958.133-.36.187-.758.223-1.143l.096-1.819a.7.7 0 0 1 .078-.309l.118.605c.351 1.457 1.218 2.549 2.417 3.406 1.677 1.197 3.557 1.607 5.587 1.432 1.053-.091 2.04-.38 2.942-.945 1.841-1.154 1.624-3.677.151-4.736-.586-.421-1.234-.447-1.909-.323l-1.982.363c-.409.068-.822.067-1.22-.079a1.07 1.07 0 0 1-.283-.154c-.24-.192-.208-.505.082-.587a10.54 10.54 0 0 1 1.394-.304c1.361-.19 2.723-.377 4.014-.871 1.489-.569 2.605-1.537 3.143-3.08.278-.794.387-1.614.308-2.455-.007-.078-.011-.156.023-.241l.396 1.759 1.404 6.238c.037.162.004.203-.156.24-.888.206-1.641.618-1.94 1.542-.355 1.102-.218 2.159.54 3.06.67.796 1.564 1.015 2.571.825l.216-.047.234 1.018c.147.557.253 1.135.478 1.661.397.93 1.076 1.59 2.115 1.774 1.293.23 2.975-.446 3.363-2.289.158-.757.049-1.495-.131-2.231l-.26-1.119c-.044-.173-.005-.23.177-.277.397-.102.8-.207 1.169-.379.815-.379 1.239-1.053 1.334-1.94l.016-.167.058-.044c.021.042.036.087.062.125 1.941 2.688 4.572 3.856 7.856 3.494 1.585-.175 2.961-.888 4.204-1.87 1.196-.945 2.139-2.084 2.734-3.497.013-.033.031-.063.077-.155l.118.65c.25 1.288.916 2.329 1.903 3.172 1.731 1.479 3.754 2.041 6.001 1.88 1.09-.078 2.114-.361 3.055-.94 1.867-1.15 1.656-3.683.186-4.747-.591-.428-1.245-.453-1.928-.327l-1.983.362c-.401.066-.808.064-1.198-.078-.101-.037-.201-.086-.286-.151-.254-.196-.222-.51.084-.597.457-.129.924-.236 1.394-.301 1.361-.192 2.722-.379 4.014-.874 1.514-.58 2.663-1.567 3.155-3.148.751-2.411.179-4.517-1.655-6.247-1.336-1.261-2.969-1.895-4.781-2.083-1.249-.129-2.484-.049-3.692.31-.604.179-1.191.408-1.711.771-1.015.709-1.392 1.716-1.103 2.917.114.476.305.919.617 1.299.648.792 1.527 1.002 2.479.868.697-.098 1.377-.317 2.065-.483.627-.152 1.246-.145 1.855.086l.12.047c.204.104.416.216.399.485s-.271.288-.453.324l-2.155.376c-1.332.207-2.65.457-3.848 1.123-1.084.603-1.867 1.467-2.285 2.645-.016.045-.041.088-.086.185m-134.043-.098l3.661-.313-1.386 6.254-2.275-5.941m21.414 6.128c.432 1.228 1.26 1.99 2.545 2.097 1.208.101 2.309-.175 3.005-1.336.841.878 1.89 1.089 3.028.933 1.202-.165 1.941-.905 2.33-2.05l.331.774c.609 1.114 1.697 1.66 2.975 1.507 1.058-.126 2.034-.992 2.338-2.12.104-.387.156-.795.179-1.196l.412-7.688.221-4.354a3.49 3.49 0 0 0-.79-2.415c-.979-1.219-3.633-1.548-4.725.615-.256.507-.363 1.048-.391 1.609l-.321 6.455-.231 4.592c-.002.033-.016.066-.034.14-.31-.679-.803-1.117-1.45-1.375l-1.404-.513-1.424-.572c-.767-.393-1.154-1.035-1.198-1.917l-.322-5-.151-1.989c-.164-1.181-.718-2.134-1.857-2.611-1.588-.665-3.366.239-3.859 1.906-.2.677-.153 1.358-.107 2.043l.412 6.189.204 2.986.021.302c-.044-.019-.074-.022-.088-.039-.627-.774-1.471-1.028-2.427-1.014l-.65.028c-.135.01-.191-.028-.201-.174l-.425-6.21-.3-3.804c-.133-1.204-1.05-2.261-2.131-2.514-1.323-.31-2.752.147-3.409 1.691l-.096.237-.122-.573a2.84 2.84 0 0 0-3.232-2.085c-1.381.227-2.149.98-2.503 2.461l-.495 2.154c-.045.21-.126.297-.347.314l-2.895.257-3.952.359c-.167.016-.24-.026-.303-.182l-1.012-2.395c-.356-.782-.918-1.364-1.77-1.61-1.707-.492-3.509.586-3.855 2.325-.137.69-.024 1.365.268 2.009l5.175 11.432 2.405 5.311c.478 1.041 1.196 1.881 2.229 2.403 1.922.972 4.295.118 5.247-1.865.347-.723.508-1.503.705-2.272l2.589-10.14 1.606-6.322c.009-.032.023-.064.08-.1l.03.212.317 4.783.297 4.479c.014.203-.033.263-.243.283-1.527.146-2.435 1.172-2.432 2.709.002 1.018.366 1.844 1.225 2.424.486.327 1.027.462 1.606.411.193-.017.232.041.247.212l.257 2.478c.18 1.114.645 2.112 1.434 2.936.99 1.033 2.217 1.514 3.638 1.507.813-.005 1.615-.1 2.385-.388 1.235-.461 1.87-1.471 1.725-2.782-.038-.343-.091-.692-.199-1.018-.314-.95-1.023-1.448-2.046-1.476-.188-.005-.376.009-.564.005-.303-.006-.548-.147-.599-.436-.08-.452-.1-.916-.132-1.376-.002-.031.094-.094.151-.102l1.096-.14c.953-.178 1.352-.471 1.982-1.42" class="B D"/><path d="M112.425 830.889c1.742-.026 3.241-1.574 3.19-3.365-.039-1.356-.634-2.427-1.855-3.041-1.185-.596-2.643-.449-3.708.79-1.844 2.145-.596 4.697 1.341 5.4.327.119.687.147 1.032.217" class="B C"/><path d="M145.328 830.89c1.836-.029 3.364-1.748 3.174-3.611-.128-1.254-.714-2.236-1.848-2.799-1.161-.577-2.602-.447-3.665.748-1.846 2.076-.734 4.679 1.287 5.439.332.124.7.151 1.052.223" class="B E"/><path d="M166.598 830.891c1.834-.034 3.364-1.764 3.167-3.618-.133-1.254-.719-2.234-1.854-2.796a2.97 2.97 0 0 0-3.634.725c-1.889 2.087-.757 4.714 1.269 5.468.333.124.701.15 1.053.221" class="B C"/><g class="E"><path d="M85.552 779.92l-.093-.849-.143-1.521h-.294-.294c-2.734 0-5.166.345-7.295 1.034s-3.877 1.689-5.245 3.001c-.953.908-1.706 1.995-2.261 3.261s-.832 2.712-.832 4.337c0 1.457.274 2.788.824 3.993s1.266 2.255 2.152 3.152c1.289 1.3 3.02 2.331 5.194 3.093s4.499 1.143 6.976 1.143h.42.336l.067-.967.118-1.437h-.286-.286c-1.403 0-2.856-.154-4.359-.462s-2.8-.771-3.888-1.387c-1.414-.807-2.502-1.841-3.265-3.101s-1.144-2.619-1.144-4.076c0-1.513.342-2.889 1.027-4.127s1.767-2.278 3.248-3.118c1.212-.695 2.566-1.199 4.064-1.513s2.988-.471 4.468-.471h.32l.471.017"/><use xlink:href="#B"/><path d="M108.077 779.937l-.303-2.135c-.079-.011-.272-.022-.58-.033l-.799-.017c-2.297 0-4.034.479-5.211 1.437s-1.765 2.429-1.765 4.412l.025 4.001.025 5.295h-2.824v1.967h2.976v3.984h2.437v-3.984h6.018v-1.967h-6.018l-.025-2.101-.025-2.589v-1.731-2.437c0-1.457.392-2.508 1.177-3.152s1.995-.966 3.631-.966l.723.009.538.008"/><use xlink:href="#B" x="22.66"/><path d="M133.729 777.953l-2.832.008-4.06.009a1141.57 1141.57 0 0 1-4.06-.009l-2.496-.008-.554 1.58 4.444 5.724 5.655 7.337-.017.034-1.47.008-1.437.009a423.52 423.52 0 0 1-4.109-.025l-2.63-.025v2.101l2.74-.008 3.177-.009 3.656.009 2.698.008.857-1.58-6.188-7.926-3.884-5.068.017-.034 1.673-.009 2.228-.008 4.943.025 1.648.025zm14.692 10.91c-.179 1.39-.653 2.479-1.42 3.269s-1.779 1.185-3.034 1.185-2.303-.401-3.143-1.202-1.423-1.886-1.748-3.253zm2.605-1.883h-12.154c.011-1.188.263-2.278.756-3.27s1.249-1.813 2.269-2.463a7.43 7.43 0 0 1 2.219-.933c.83-.207 1.826-.311 2.992-.311l1.757.051.983.067-.303-2.236a21.79 21.79 0 0 0-.891-.059l-1.782-.042c-1.793 0-3.354.232-4.681.698s-2.418 1.107-3.27 1.925c-.729.683-1.348 1.557-1.858 2.623s-.765 2.247-.765 3.547c0 1.277.19 2.432.572 3.462s.952 1.989 1.715 2.875c.661.762 1.482 1.35 2.463 1.765a7.75 7.75 0 0 0 3.051.622c1.042 0 1.967-.157 2.774-.471a5.61 5.61 0 0 0 2.101-1.429c.661-.717 1.165-1.599 1.513-2.647s.526-2.306.538-3.774m18.392-9.128h-2.656l.042 3.11.025 3.261-.009 2.58-.025 2.496c-.034 1.289-.28 2.213-.74 2.774s-1.255.841-2.387.841c-.684 0-1.53-.202-2.538-.605s-2.028-.919-3.06-1.546l-.017-2-.017-3.312.042-4.707.042-2.891h-2.656l.034 2.059.034 5.774-.009 4.135-.058 5.043h2.623l-.017-1.933.017-.033c1.569.896 2.877 1.521 3.925 1.874s1.919.53 2.614.53c1.434 0 2.586-.451 3.454-1.353s1.303-2.138 1.303-3.707l-.025-3.656-.025-2.496.041-3.824.042-2.412"/></g><g class="C"><path d="M190.093 777.886l-2.126.017-4.917.016a403.58 403.58 0 0 1-3.741-.016l-3-.017.058 5.858.026 5.825-.034 7.279-.05 3.514h2.774l-.051-5.005-.016-4.653.016-7.373.017-3.124 1.664-.008 1.765-.008 5.236.025 2.379.025zm13.045 5.496v1.446l-.017 2.017c-.493-.023-1.356-.121-2.588-.294s-2.269-.423-3.11-.748c-.628-.235-1.185-.588-1.672-1.059a2.33 2.33 0 0 1-.731-1.748c0-.762.207-1.376.622-1.841s.98-.821 1.698-1.067a9.01 9.01 0 0 1 1.824-.412 16.94 16.94 0 0 1 2.11-.126l.823.017 1.025.034.009 1.11.009 2.672m2.572 4.051l-.017-6.791-.017-2.824-1.563-.126-3.597-.109a15.58 15.58 0 0 0-2.774.252c-.93.168-1.731.409-2.404.723-.897.414-1.622.981-2.177 1.698s-.832 1.58-.832 2.588c0 1.065.328 1.986.983 2.766s1.566 1.409 2.732 1.891c.728.303 1.701.574 2.916.815s2.603.423 4.16.547c-.067.874-.285 1.591-.655 2.152s-.914.986-1.631 1.277c-.493.202-1.042.345-1.647.428s-1.312.126-2.118.126a20.93 20.93 0 0 1-1.286-.034l-1.437-.084.269 2.236 1.001.059 2.042.042c1.322 0 2.502-.138 3.539-.412s1.897-.72 2.58-1.337a5.53 5.53 0 0 0 1.446-2.16c.325-.858.487-2.099.487-3.724m17.833-1c0 1.354-.384 2.49-1.151 3.408s-1.757 1.583-2.967 1.998a12.62 12.62 0 0 1-2.034.495 14.19 14.19 0 0 1-2.253.176h-.446-.378l-.008-2.678-.009-3.802.017-3.962.017-2.35c1.233 0 2.359.092 3.379.277s1.9.473 2.639.865c1.076.571 1.877 1.324 2.403 2.258s.79 2.04.79 3.315m2.69.068c0-1.836-.451-3.415-1.353-4.736s-2.121-2.307-3.656-2.956c-.998-.426-2.135-.736-3.412-.932s-2.814-.294-4.606-.294h-.756-.74l.042 4.805.025 8.449-.017 5.863-.051 5.796h2.656l-.05-7.75c2.297-.022 4.138-.227 5.522-.613s2.535-.91 3.454-1.57c.953-.683 1.681-1.537 2.186-2.561s.756-2.191.756-3.501"/><path d="M19.313 803.344l.278.301c2.697-3.169 6.325-3.759 10.302-3.869 0 1.517.085 2.915-.033 4.293-.066.79-.304 1.655-.735 2.308-1.743 2.638-4.288 4.112-7.358 4.736-.219.045-.424.161-.636.244l.064.293 4.097-.236-1.08 3.458 5.305-6.933.363.195c0 1.668-.048 3.339.02 5.006.035.859-.235 1.36-.972 1.831-2.007 1.282-3.032 3.209-3.348 5.536 1.189-1.614 2.103-3.476 4.201-4.333 0 4.652.175 9.173-.06 13.673-.162 3.119-2.271 4.645-5.201 4.277-2.139-.268-3.582-1.472-4.295-3.516-.705-2.021-.465-3.99.345-5.964-.643.772-1.22 1.566-1.652 2.433-.276.553-.553.654-1.113.504-2.294-.618-3.947-2.871-3.693-5.237.1-.937.428-1.85.676-2.872l-.93.64c-.881-.246-1.546-.49-2.234-.614-2.313-.417-3.95-2.362-3.978-4.717-.021-1.725.727-3.105 1.744-4.483l-1.793.994c-5.356-4.421-5.692-9.085-.906-14.467-.56.166-.966.209-1.288.397-.618.36-.995.125-1.45-.317-.989-.962-1.134-2.094-.744-3.312.397-1.242 1.391-1.914 2.626-1.941 1.456-.031 2.918.184 4.132.274-.564-1.108-1.402-2.381-1.88-3.777-.946-2.766.392-5.3 2.989-5.953 1.722-.434 3.333-.102 4.812.858.656.424 1.28.901 2.058 1.453-.357-1.026-.719-1.859-.928-2.729-.212-.887-.397-1.812-.376-2.715.068-2.934 2.273-4.504 4.957-3.546.393.141.733.61.958 1.005.427.751.752 1.558 1.12 2.343l.364-.139c0-.668-.079-1.348.018-2.003.152-1.019.315-2.061.668-3.023.543-1.476 1.733-2.078 3.239-1.837 1.285.205 1.866.868 1.932 2.602.087 2.318.032 4.641.037 6.963l.001 1.938c-2.282-.242-2.681-2.004-3.481-3.785-.06 1.951.437 3.507 1.559 4.542 1.871 1.728 2.141 3.767 1.897 6.06-.03.278-.004.559-.004.841-.002 1.794-.311 2.011-2.127 1.708-1.864-.311-3.143-1.503-4.51-2.704l1.01 1.894h-5.302c.671.166 1.389.104 2.011.317 2.824.968 5.625 2.002 8.419 3.054.221.082.446.459.465.716.058.825.021 1.656.021 2.541l-10.239.755 1.928.905-2.274 3.138m-7.587 18.405c.165 1.074.211 2.084.486 3.027.697 2.393 2.304 3.998 4.66 4.767.676.221.92.556 1.094 1.191 1.15 4.209 5.067 6.449 9.292 5.355 2.755-.714 4.611-3.178 4.701-6.641.135-5.199.135-10.403.151-15.605l.066-37.22c0-.917-.074-1.838-.174-2.75-.286-2.62-1.332-3.828-3.618-4.24-2.187-.395-4.441.68-5.466 2.622-.183.346-.331.712-.491 1.061-5.218-1.519-8.644 2.579-7.851 6.85-2.911-.739-5.521-.325-7.491 2.076-1.938 2.361-1.927 4.962-.602 7.703-1.981-.118-3.613.362-4.76 1.937-1.333 1.832-1.292 4.113.19 5.867.489.578.525.999.227 1.675-1.985 4.502-.85 9.376 2.84 12.644.314.278.589.848.545 1.246-.489 4.538 1.692 7.547 6.202 8.435" class="B"/></g><path d="M37.521 808.608c.936 5.773 3.058 11.066 6.005 16.083l-1.826-7.169c-.581-2.435-1.096-4.885-1.475-7.442 2.665 2.432 5.55 4.292 9.33 5.138-.345-.268-.459-.389-.597-.459-5.889-2.986-9.404-7.767-10.754-14.193-.43-2.049-.868-4.093-1.194-6.189 3.164 7.081 8.205 12.251 15.267 15.447-7.289-4.974-11.394-11.959-13.179-20.551 3.76 1.767 5.214 3.003 8.115 6.85.168-1.955-.893-4.045-2.841-5.554-.885-.686-1.768-1.376-2.688-2.013-3.381-2.346-4.069-5.679-3.664-9.51.344-3.257 1.128-6.346 3.015-9.225h-7.966c1.367 1.871 1.307 3.988 1.307 6.097l.028 18.975c.012 1.46.16 2.956.508 4.369.78 3.18.548 6.328.19 9.529-.418 3.728-.603 7.482-.686 11.256 2.04-3.552.926-7.908 3.105-11.437" class="B E"/><g class="D B"><path d="M33.965 825.994c.094.004.094.004.212.437l.357.052c.143-.303.405-.245.674-.201.102-.397.409-.309.69-.275.032-.472.457-.477.851-.291l-.413-1.326c-.013-.041-.088-.086-.134-.087l-1.836-.004-.441.692-.637.936c-.261.42.005.974.496 1.063a.25.25 0 0 0 .292-.267c-.013-.241-.07-.479-.109-.73m2.005.989l.001-.43c.006-.211-.119-.276-.302-.276s-.298.07-.292.282l.001.86c-.003.2.103.261.284.261s.31-.054.308-.266v-.43"/><path d="M35.277 827.243v-.451c.002-.194-.126-.241-.282-.242-.165-.002-.302.043-.301.249l.001.925c.001.196.139.232.293.229s.288-.041.29-.235v-.474m.795-.627v.477c-.002.156.087.216.228.218s.315.028.327-.181l.021-1.019c-.007-.185-.176-.207-.327-.197-.137.008-.254.051-.25.226v.477m-2.241.561l.099.492c.064.2.22.303.429.311.144.005.242-.044.235-.221l-.003-.726c-.003-.252-.068-.304-.353-.273-.011.225-.043.447-.407.417m10.242 9.792c.092-.018.092-.018.308.376l.36-.033c.069-.328.337-.333.608-.353.006-.41.325-.396.606-.429-.079-.466.333-.57.76-.482l-.711-1.193c-.022-.037-.106-.064-.151-.053l-1.786.425-.267.776-.401 1.059c-.156.469.232.946.73.918a.25.25 0 0 0 .221-.328c-.069-.231-.18-.45-.276-.684m2.182.492l-.099-.418c-.044-.207-.181-.24-.358-.198s-.273.138-.218.342l.202.836c.044.195.161.23.337.187s.289-.125.237-.33l-.101-.418"/><path d="M45.641 837.878l-.105-.439c-.043-.189-.179-.204-.331-.169-.16.037-.283.112-.235.312l.217.899c.047.19.189.193.338.154s.271-.107.227-.296l-.111-.461m.628-.794l.111.464c.034.152.135.19.272.159s.313-.047.275-.253l-.218-.996c-.05-.179-.219-.16-.364-.115-.131.04-.235.109-.19.278l.112.463m-2.048 1.07l.211.455c.109.18.285.243.49.202.141-.029.225-.099.177-.269l-.172-.705c-.061-.244-.137-.279-.407-.182.042.221.063.445-.299.5m4.694-2.771c.084-.043.084-.043.4.277l.337-.131c-.024-.334.232-.413.488-.506-.107-.396.204-.47.465-.579-.204-.427.163-.64.598-.672l-1.012-.951c-.032-.029-.119-.032-.16-.01l-1.6.9-.044.82-.095 1.128c-.021.494.483.845.954.682a.25.25 0 0 0 .123-.376c-.13-.203-.297-.383-.454-.582"/><path d="M51.146 835.257l-.21-.375c-.099-.187-.24-.181-.399-.092s-.225.208-.115.389l.424.748c.096.175.218.177.376.088s.244-.199.137-.383l-.212-.374m-.477.568l-.222-.393c-.093-.17-.229-.147-.365-.072-.144.079-.242.186-.14.365l.456.805c.097.17.234.134.367.055s.231-.178.136-.348l-.233-.413"/><path d="M51.055 834.889l.234.415c.075.137.182.145.305.078s.288-.131.195-.319l-.483-.898c-.097-.158-.255-.093-.381-.011-.115.075-.196.17-.106.32l.235.415m-1.675 1.593l.328.38c.154.143.341.155.527.059.128-.066.189-.157.096-.308l-.359-.631c-.126-.218-.209-.231-.441-.063.102.201.183.41-.15.563"/><use xlink:href="#C"/><use xlink:href="#D"/><use xlink:href="#E"/><use xlink:href="#F"/><use xlink:href="#G"/><use xlink:href="#C" x="3.511" y="-4.336"/><use xlink:href="#D" x="3.51" y="-4.336"/><use xlink:href="#E" x="3.51" y="-4.336"/><use xlink:href="#F" x="3.511" y="-4.336"/><use xlink:href="#G" x="3.511" y="-4.336"/></g><g class="C B"><path d="M61.116 820.169c.061-.072.061-.072.476.1l.26-.251c-.152-.299.054-.47.253-.656-.252-.324.006-.512.204-.714-.354-.314-.098-.653.29-.852l-1.302-.484c-.04-.014-.122.017-.151.053l-1.126 1.45.278.772.35 1.077c.173.463.774.591 1.144.258a.25.25 0 0 0-.033-.394c-.199-.137-.422-.238-.644-.36"/><path d="M63.125 819.184l-.34-.264c-.163-.134-.291-.074-.403.07s-.127.279.044.403l.681.525c.156.124.269.078.38-.065s.148-.278-.022-.406l-.341-.263m-.218.71l-.357-.276c-.152-.12-.268-.047-.364.075-.102.129-.15.265.013.391l.733.565c.156.119.268.032.36-.091s.143-.253-.009-.373l-.375-.29m-.009-1.014l.377.292c.122.097.224.063.311-.047s.215-.232.056-.37l-.794-.64c-.151-.108-.271.013-.355.138-.077.113-.115.232.026.336l.378.291M61.971 821l.45.222c.197.072.374.011.508-.15.092-.111.113-.219-.031-.321l-.576-.442c-.201-.152-.282-.132-.432.113.172.146.328.307.081.577m-1.296-11.052c.022-.091.022-.091.47-.123l.12-.34c-.269-.2-.161-.445-.066-.7-.37-.177-.223-.461-.136-.73-.457-.123-.379-.541-.12-.892l-1.381.147c-.043.005-.102.069-.112.115l-.361 1.8.593.567.794.808c.361.338.956.185 1.139-.28a.25.25 0 0 0-.205-.338c-.239-.034-.484-.025-.737-.035"/><path d="M62.035 808.17l-.422-.085c-.206-.047-.294.064-.33.243s.011.306.22.341l.843.166c.195.042.276-.05.311-.228s.008-.315-.201-.353l-.422-.083m.121.731l-.443-.088c-.19-.04-.261.077-.293.23-.034.161-.016.304.186.344l.908.179c.192.037.254-.091.281-.242s.015-.291-.175-.33l-.465-.092m-.458-.903l.468.093c.152.033.229-.043.258-.181s.088-.304-.114-.356l-.996-.219c-.183-.029-.237.132-.256.282-.018.136.001.259.173.289l.468.092m.114 2.309l.501-.001c.209-.024.34-.157.388-.36.033-.14.004-.246-.171-.274l-.713-.139c-.248-.046-.311.008-.336.293.219.054.43.129.33.48"/></g><g class="D B"><use xlink:href="#H"/><use xlink:href="#I"/><use xlink:href="#J"/><use xlink:href="#K"/><use xlink:href="#L"/><use xlink:href="#H" x="-4.828" y="-4.441"/><use xlink:href="#I" x="-4.828" y="-4.44"/><use xlink:href="#J" x="-4.828" y="-4.441"/><use xlink:href="#K" x="-4.828" y="-4.441"/><use xlink:href="#L" x="-4.828" y="-4.44"/><use xlink:href="#M"/><use xlink:href="#N"/><use xlink:href="#O"/><use xlink:href="#P"/><use xlink:href="#Q"/><path d="M59.093 805.064c.016-.072.016-.072.364-.104l.088-.267c-.213-.151-.133-.344-.063-.544-.291-.132-.182-.355-.118-.566-.358-.088-.305-.414-.109-.692l-1.072.139c-.033.005-.078.056-.085.091l-.249 1.407.472.431.632.615c.287.256.748.127.882-.238.04-.11-.028-.243-.165-.26-.187-.022-.377-.011-.574-.014"/><path d="M60.12 803.657l-.329-.059c-.161-.033-.228.055-.252.195s.014.238.177.262l.659.114c.153.029.214-.044.239-.183s.001-.245-.163-.272l-.33-.057m.106.568l-.346-.061c-.148-.028-.202.065-.224.184-.023.126-.007.237.15.265l.71.123c.15.026.196-.075.215-.194s.007-.227-.142-.254l-.363-.064m-.373-.693l.366.064c.119.023.177-.037.198-.145s.064-.238-.095-.275l-.779-.153c-.143-.02-.182.107-.195.224-.012.106.005.202.14.222l.366.064m.129 1.794l.39-.01c.162-.022.262-.128.296-.287.023-.11-.001-.192-.138-.21l-.557-.096c-.194-.032-.242.012-.256.234.171.038.337.093.265.368m-4.688-9.024c-.017-.071-.017-.071.283-.251l-.037-.279c-.257-.044-.269-.252-.292-.463-.319.007-.317-.242-.351-.459-.361.076-.454-.242-.398-.576l-.907.589c-.028.018-.046.084-.037.119l.384 1.377.612.185.835.281c.37.107.729-.209.692-.596-.011-.117-.13-.207-.262-.163-.178.061-.345.153-.524.236"/><use xlink:href="#R"/><path d="M55.956 795.054l-.338.095c-.146.039-.154.146-.122.263.033.124.096.217.25.173l.693-.196c.147-.042.144-.152.11-.267s-.092-.207-.238-.168l-.355.1m-.637-.465l.358-.101c.117-.031.144-.11.115-.217s-.046-.242-.205-.207l-.768.199c-.138.044-.118.175-.079.286.035.101.092.179.222.139l.357-.101"/><use xlink:href="#S"/></g><g class="C B"><path d="M57.686 800.733c-.017-.071-.017-.071.283-.251l-.037-.279c-.257-.044-.269-.252-.292-.463-.319.007-.317-.241-.351-.459-.361.075-.454-.242-.398-.576l-.907.589c-.028.018-.046.084-.037.119l.384 1.377.612.185.836.281c.37.107.729-.209.692-.596-.011-.117-.13-.207-.262-.163-.178.061-.345.153-.524.236"/><use xlink:href="#R" x="2.389" y="4.432"/><path d="M58.345 799.486l-.338.095c-.146.039-.154.146-.122.262.033.124.096.217.25.174l.693-.196c.147-.042.144-.152.11-.267s-.092-.207-.238-.168l-.355.1m-.637-.465l.358-.1c.117-.031.144-.11.115-.217s-.046-.242-.205-.207l-.768.199c-.138.044-.118.175-.079.286.035.101.092.18.222.139l.357-.101"/><use xlink:href="#S" x="2.389" y="4.432"/></g><g class="D B"><path d="M56.531 811.963c.031-.053.031-.053.314.011l.138-.189c-.13-.174-.018-.306.089-.446-.197-.178-.053-.327.051-.478-.26-.161-.135-.405.09-.575l-.884-.164c-.027-.005-.076.024-.09.051l-.557 1.05.263.462.343.648c.161.276.559.291.758.037.06-.077.04-.199-.065-.248-.142-.065-.295-.105-.45-.158"/><path d="M57.703 811.112l-.246-.13c-.119-.067-.194-.015-.249.089s-.05.192.073.252l.492.259c.113.062.181.02.235-.084s.063-.194-.059-.256l-.247-.13m-.059.477l-.258-.136c-.11-.06-.176 0-.224.088s-.067.186.051.248l.53.279c.112.059.174-.009.219-.098s.063-.177-.047-.237l-.271-.143m-.118-.646l.273.144c.089.049.15.016.194-.064s.111-.172-.005-.242l-.577-.32c-.108-.052-.171.038-.211.128-.036.081-.047.161.054.211l.273.144m-.357 1.453l.311.092a.28.28 0 0 0 .308-.152c.046-.081.048-.152-.055-.201l-.416-.218c-.145-.075-.194-.053-.263.12.126.074.243.159.116.359"/></g><g class="C B"><path d="M50.262 830.116c.051-.051.051-.051.354.106l.213-.173c-.096-.236.071-.353.234-.48-.17-.262.038-.388.201-.528-.248-.261-.032-.501.275-.626l-.954-.451c-.03-.014-.094.004-.118.03l-.947 1.026.161.603.196.838c.1.362.547.498.85.269a.19.19 0 0 0 .001-.301c-.142-.117-.304-.208-.465-.314"/><path d="M51.848 829.5l-.24-.222c-.115-.112-.216-.075-.31.027s-.114.203.007.308l.482.442c.11.104.199.077.293-.025s.129-.201.009-.309l-.241-.221m-.211.523l-.252-.232c-.108-.101-.2-.053-.281.033-.086.091-.131.191-.016.297l.519.476c.11.1.201.042.278-.046s.125-.182.017-.283l-.265-.244"/><path d="M51.696 829.256l.267.245c.086.082.165.063.239-.015s.178-.162.067-.276l-.56-.536c-.107-.092-.206-.008-.278.082-.066.081-.102.169-.002.256l.267.245m-.839 1.544l.326.198c.145.067.283.033.395-.08.077-.078.1-.158-.002-.245l-.408-.372c-.142-.128-.205-.118-.334.058.121.122.228.254.024.442"/><use xlink:href="#M" x="-3.956" y="1.639"/><use xlink:href="#N" x="-3.956" y="1.64"/><use xlink:href="#O" x="-3.956" y="1.639"/><use xlink:href="#P" x="-3.956" y="1.64"/><use xlink:href="#Q" x="-3.956" y="1.639"/></g><g class="D B"><use xlink:href="#M" x="-8.502" y="-1.069"/><use xlink:href="#N" x="-8.503" y="-1.068"/><use xlink:href="#O" x="-8.503" y="-1.069"/><use xlink:href="#P" x="-8.502" y="-1.069"/><use xlink:href="#Q" x="-8.502" y="-1.069"/></g><g class="C B"><path d="M48.814 805.026c.016-.072.016-.072.364-.103l.088-.267c-.213-.151-.133-.344-.062-.544-.291-.132-.181-.355-.117-.566-.358-.089-.304-.415-.108-.692l-1.072.137c-.033.005-.078.056-.085.091l-.252 1.407.471.432.631.616c.287.257.747.128.882-.236.04-.11-.028-.243-.165-.26-.187-.022-.377-.012-.574-.015"/><path d="M49.843 803.621l-.329-.059c-.161-.033-.228.054-.253.194s.013.238.176.262l.659.115c.153.029.214-.043.239-.183s.001-.245-.162-.272l-.33-.058m.106.569l-.346-.061c-.148-.028-.202.064-.224.184-.024.126-.008.237.15.265l.709.124c.151.026.196-.075.215-.193s.007-.227-.141-.254l-.363-.064m-.372-.696l.366.065c.119.023.177-.037.198-.145s.064-.238-.095-.275l-.779-.154c-.143-.02-.182.107-.195.224-.012.106.005.202.14.222l.365.064m.127 1.795l.39-.009c.162-.022.262-.128.296-.287.023-.11-.001-.192-.137-.21l-.557-.097c-.194-.032-.242.011-.257.234.171.039.337.093.264.369m-5.762-8.718c.013-.06.013-.06.304-.086l.074-.223c-.178-.126-.111-.287-.052-.455-.243-.11-.151-.297-.098-.473-.299-.074-.254-.347-.09-.579l-.897.115c-.027.004-.065.046-.071.076l-.21 1.176.394.361.527.515c.24.215.625.107.738-.197.034-.092-.023-.203-.138-.217-.156-.019-.315-.01-.48-.013"/><path d="M44.801 795.397l-.276-.049c-.135-.028-.19.045-.211.162s.011.199.147.219l.551.097c.128.024.179-.036.2-.153s.001-.205-.135-.227l-.276-.048m.089.474l-.289-.051c-.124-.024-.169.054-.187.153-.02.105-.006.198.125.221l.593.104c.126.022.164-.062.18-.161s.006-.189-.118-.212l-.304-.054m-.311-.581l.306.054c.1.019.148-.031.165-.121s.053-.199-.079-.23l-.651-.129c-.12-.016-.152.089-.163.187-.01.089.004.169.117.185l.306.054m.105 1.501l.326-.008c.135-.018.219-.107.248-.24.02-.092-.001-.16-.115-.176l-.465-.081c-.162-.027-.202.009-.215.196.143.032.282.078.221.308"/></g><g class="D B"><use xlink:href="#T"/><use xlink:href="#U"/><use xlink:href="#V"/><use xlink:href="#W"/><use xlink:href="#X"/></g><g class="C B"><use xlink:href="#T" x="-0.713" y="-3.833"/><use xlink:href="#U" x="-0.712" y="-3.832"/><use xlink:href="#V" x="-0.713" y="-3.833"/><use xlink:href="#W" x="-0.713" y="-3.832"/><use xlink:href="#X" x="-0.712" y="-3.833"/><use xlink:href="#Y"/><use xlink:href="#Z"/><path d="M48.585 790.085l-.339.091c-.146.037-.156.144-.125.261.032.124.093.218.248.177l.696-.187c.147-.04.146-.15.113-.266s-.089-.208-.236-.17l-.356.095m-.632-.473l.359-.096c.118-.029.145-.109.118-.215s-.043-.242-.202-.209l-.771.189c-.138.043-.12.174-.082.285.034.101.09.181.221.142l.358-.096"/><use xlink:href="#a"/></g><g class="D B"><use xlink:href="#Y" x="-3.176" y="-3.066"/><use xlink:href="#Z" x="-3.176" y="-3.065"/><path d="M45.409 787.02l-.339.091c-.146.037-.156.144-.125.261.032.124.093.218.248.176l.696-.187c.147-.04.146-.15.113-.266s-.089-.208-.236-.17l-.356.095m-.632-.473l.359-.096c.118-.029.145-.109.118-.215s-.043-.243-.202-.209l-.771.189c-.138.042-.12.174-.082.285.034.101.09.181.221.142l.358-.096"/><use xlink:href="#a" x="-3.175" y="-3.065"/><path d="M50.597 794.996c-.009-.073-.009-.073.31-.217l-.005-.281c-.251-.073-.239-.281-.238-.493-.318-.029-.288-.276-.297-.496-.367.034-.423-.292-.33-.618l-.967.483c-.03.015-.056.078-.05.114l.226 1.411.587.253.799.374c.355.148.748-.125.755-.514.002-.118-.106-.22-.242-.191-.184.04-.36.113-.547.175"/><path d="M51.106 793.33l-.331.053c-.163.022-.197.126-.175.266s.091.22.253.189l.66-.108c.154-.023.188-.111.165-.251s-.08-.232-.243-.203l-.331.054m.289.502l-.347.056c-.149.022-.169.127-.151.247.019.127.071.227.229.201l.711-.116c.15-.025.161-.135.139-.253s-.068-.216-.217-.193l-.364.059m-.581-.535l.367-.059c.12-.017.155-.093.139-.202s-.018-.246-.18-.229l-.786.111c-.142.028-.137.161-.111.275.024.104.071.189.205.164l.366-.06m.712 1.654l.365-.137c.146-.074.205-.207.185-.369-.014-.111-.064-.181-.199-.153l-.558.092c-.193.034-.225.09-.165.306.174-.02.349-.023.371.261"/><use xlink:href="#T" x="-5.444" y="-3.316"/><use xlink:href="#U" x="-5.444" y="-3.316"/><use xlink:href="#V" x="-5.444" y="-3.316"/><use xlink:href="#W" x="-5.444" y="-3.316"/><use xlink:href="#X" x="-5.444" y="-3.316"/><path d="M53.772 808.057c.027-.082.027-.082.438-.074l.137-.3c-.229-.203-.112-.418-.004-.643-.323-.191-.166-.438-.065-.676-.406-.149-.302-.523-.038-.822l-1.269.023c-.039.001-.099.055-.111.096l-.473 1.61.495.564.658.799c.302.336.856.245 1.06-.163.062-.124-.001-.287-.159-.324-.215-.05-.439-.062-.668-.091"/><path d="M55.152 806.548l-.377-.111c-.184-.059-.273.034-.32.194s-.015.279.173.328l.755.219c.174.054.256-.023.302-.183s.032-.286-.155-.338l-.378-.11m.051.677l-.396-.116c-.17-.052-.244.049-.285.186-.044.144-.039.276.141.328l.812.236c.172.049.238-.062.275-.198s.037-.263-.133-.315l-.416-.121m-.343-.858l.419.122c.136.042.212-.021.249-.144s.105-.269-.076-.333l-.889-.279c-.165-.041-.226.101-.256.236-.027.122-.02.236.135.277l.418.121m-.081 2.112l.457.039c.192-.005.322-.116.382-.297.041-.125.023-.224-.134-.263l-.638-.184c-.222-.062-.284-.018-.33.24.195.067.382.152.262.464"/><use xlink:href="#b"/><use xlink:href="#c"/><use xlink:href="#d"/><use xlink:href="#e"/><use xlink:href="#f"/></g><g class="C B"><use xlink:href="#b" x="-3.534" y="-2.693"/><use xlink:href="#c" x="-3.534" y="-2.693"/><use xlink:href="#d" x="-3.534" y="-2.693"/><use xlink:href="#e" x="-3.534" y="-2.693"/><use xlink:href="#f" x="-3.534" y="-2.693"/></g><g class="D B"><use xlink:href="#H" x="-9.576" y="-2.494"/><use xlink:href="#I" x="-9.576" y="-2.494"/><use xlink:href="#J" x="-9.576" y="-2.494"/><use xlink:href="#K" x="-9.576" y="-2.494"/><use xlink:href="#L" x="-9.576" y="-2.494"/><use xlink:href="#H" x="-13.706" y="-6.013"/><use xlink:href="#I" x="-13.707" y="-6.013"/><use xlink:href="#J" x="-13.707" y="-6.013"/><use xlink:href="#K" x="-13.706" y="-6.013"/><use xlink:href="#L" x="-13.706" y="-6.013"/><path d="M34.979 832.298c.064.069.064.069-.16.459l.216.289c.316-.113.46.113.618.335.353-.209.507.071.682.293.357-.311.66-.014.808.396l.646-1.23c.019-.038-.001-.123-.034-.157l-1.295-1.301-.802.177-1.112.211c-.481.112-.685.692-.401 1.102a.25.25 0 0 0 .395.017c.161-.18.29-.388.439-.593"/><path d="M35.7 834.415l.305-.303c.153-.145.111-.28-.018-.409s-.26-.161-.405-.007l-.607.609c-.143.139-.112.257.016.386s.257.182.406.03l.304-.305m-.677-.307l.319-.319c.139-.136.081-.26-.028-.371-.115-.118-.244-.183-.389-.037l-.653.655c-.138.14-.066.262.045.368s.233.175.371.038l.335-.335m1.006.121l-.337.337c-.112.109-.091.214.007.315s.203.242.359.103l.736-.706c.126-.136.022-.27-.092-.37-.103-.091-.216-.143-.336-.016l-.337.338m-1.984-1.19l-.278.418c-.096.187-.058.37.084.523.098.106.202.14.322.01l.511-.515c.176-.18.166-.263-.057-.442-.166.152-.346.286-.582.007"/></g><g class="C B"><path d="M39.045 837.251c.094.002.094.002.223.432l.359.042c.135-.306.399-.255.668-.218.091-.4.401-.319.682-.293.02-.473.444-.489.843-.313l-.447-1.315c-.014-.04-.09-.084-.137-.083l-1.835.044-.423.704-.613.952c-.25.427.03.973.523 1.05a.25.25 0 0 0 .285-.274c-.02-.241-.082-.478-.128-.726m2.032.934l-.01-.43c0-.211-.127-.273-.309-.268s-.296.078-.284.289l.024.859c.002.2.109.258.291.253s.309-.061.301-.274l-.012-.43"/><path d="M40.39 838.465l-.011-.451c-.003-.194-.133-.237-.289-.235-.165.003-.301.051-.295.257l.025.925c.006.196.145.228.298.221s.287-.049.283-.243l-.012-.474m.78-.646l.012.477c.002.156.092.214.234.212s.316.02.322-.19l-.006-1.019c-.012-.185-.181-.202-.332-.188-.137.012-.253.058-.244.232l.013.477m-2.226.619l.112.489c.07.198.228.297.437.299.144.001.241-.05.229-.227l-.022-.726c-.009-.252-.076-.302-.36-.263-.005.225-.031.448-.396.427m13.271-12.74c.087-.056.087-.056.47.26l.355-.181c-.063-.364.21-.479.48-.61-.161-.424.172-.539.447-.687-.272-.446.108-.721.582-.805l-1.217-.933c-.038-.028-.134-.022-.177.007l-1.659 1.165.042.906.02 1.25c.032.545.625.876 1.124.643.151-.07.215-.272.093-.426-.165-.209-.368-.388-.563-.589"/><path d="M54.653 825.311l-.273-.389c-.129-.194-.284-.173-.448-.057s-.224.253-.084.44l.549.775c.124.182.259.17.423.055s.246-.246.108-.436l-.275-.388m-.461.678l-.287-.407c-.122-.176-.267-.137-.409-.039-.15.103-.245.231-.113.417l.59.834c.126.176.273.121.409.02s.234-.221.112-.397l-.302-.428"/><path d="M54.512 824.917l.303.43c.097.142.216.14.344.051s.302-.176.179-.372l-.63-.933c-.124-.163-.29-.074-.42.031-.118.095-.197.208-.081.363l.304.43m-1.665 1.936l.402.381c.185.14.392.133.585.007.133-.087.191-.194.072-.349l-.465-.653c-.163-.225-.255-.231-.492-.021.134.21.246.43-.102.635"/></g><g class="D B"><path d="M46.355 826.395c.094-.06.094-.06.505.28l.382-.195c-.068-.392.225-.515.517-.656-.173-.456.185-.58.481-.74-.292-.48.117-.776.627-.866l-1.309-1.004c-.041-.03-.145-.024-.19.008l-1.785 1.254.046.975.022 1.345c.034.587.672.942 1.21.692.162-.076.231-.293.1-.459-.178-.225-.396-.418-.606-.634m2.625-.416l-.293-.418c-.139-.209-.305-.186-.483-.061s-.241.272-.09.473l.59.834c.134.196.279.183.455.059.181-.127.265-.265.117-.469l-.296-.417"/><path d="M48.485 826.708l-.309-.438c-.131-.19-.288-.147-.44-.042-.161.111-.263.249-.122.448l.635.898c.136.19.293.13.441.022s.252-.238.12-.427l-.324-.46m.343-1.154l.327.463c.105.153.232.15.37.055s.325-.189.193-.4l-.678-1.004c-.134-.175-.312-.08-.452.033-.127.102-.212.224-.087.391l.327.462m-1.793 2.083l.433.41c.199.15.421.143.629.007.144-.094.205-.209.077-.375l-.5-.703c-.175-.243-.274-.248-.529-.022.144.226.265.463-.11.684"/></g><g class="C B"><use xlink:href="#g"/><use xlink:href="#h"/><use xlink:href="#i"/><use xlink:href="#j"/><use xlink:href="#k"/></g><g class="D B"><use xlink:href="#g" x="-5.202" y="-0.382"/><use xlink:href="#h" x="-5.203" y="-0.383"/><use xlink:href="#i" x="-5.202" y="-0.383"/><use xlink:href="#j" x="-5.202" y="-0.383"/><use xlink:href="#k" x="-5.202" y="-0.383"/></g><g class="C B"><path d="M39.186 824.422c.073.059.073.059-.088.478l.258.253c.295-.159.472.042.662.237.317-.26.512-.007.719.186.305-.362.65-.115.859.268l.451-1.314c.013-.041-.02-.122-.057-.15l-1.478-1.088-.765.298-1.067.378c-.459.185-.572.789-.228 1.151a.25.25 0 0 0 .393-.043c.132-.202.227-.428.343-.653"/><path d="M40.221 826.405l.255-.346c.13-.167.067-.293-.08-.401s-.282-.119-.402.055l-.507.694c-.121.159-.071.271.075.379s.282.14.405-.033l.254-.347m-.714-.201l.267-.364c.117-.155.04-.269-.085-.362-.132-.099-.269-.143-.39.023l-.546.747c-.115.159-.025.269.101.357s.257.137.373-.019l.28-.382m1.012-.035l-.282.384c-.094.124-.058.226.055.31s.237.209.371.047l.619-.81c.104-.154-.02-.271-.147-.352-.115-.074-.235-.109-.335.035l-.281.385m-2.142-.871l-.211.455c-.066.199-.001.375.163.504.113.089.221.108.32-.039l.427-.587c.146-.205.124-.285-.124-.428-.142.175-.299.335-.575.095"/></g></g></svg>